<svg width="518" height="518" viewBox="0 0 518 518" fill="none" xmlns="http://www.w3.org/2000/svg">
<path d="M303.945 466.869C304.814 459.235 302.367 451.284 296.603 445.427C290.84 439.571 283.015 437.084 275.502 437.967C274.633 445.602 277.08 453.552 282.844 459.409C288.607 465.265 296.432 467.752 303.945 466.869Z" fill="#8FBC94"/>
<path d="M303.945 463.86C296.432 462.977 288.607 465.464 282.844 471.32C277.08 477.177 274.633 485.127 275.502 492.762C283.015 493.645 290.839 491.158 296.603 485.301C302.367 479.445 304.814 471.494 303.945 463.86Z" fill="#8FBC94"/>
<path d="M214.055 463.86C213.186 471.494 215.633 479.445 221.397 485.302C227.16 491.158 234.985 493.645 242.498 492.762C243.367 485.127 240.92 477.177 235.156 471.32C229.392 465.464 221.568 462.977 214.055 463.86Z" fill="#8FBC94"/>
<path d="M214.055 466.869C221.568 467.752 229.393 465.266 235.156 459.409C240.92 453.552 243.367 445.602 242.498 437.967C234.985 437.084 227.16 439.571 221.397 445.428C215.633 451.284 213.186 459.235 214.055 466.869Z" fill="#8FBC94"/>
<path d="M236.412 465.758C236.345 465.758 236.278 465.758 236.211 465.757L236.211 465.759C236.278 465.759 236.345 465.758 236.412 465.758Z" fill="#8FBC94"/>
<path d="M258.766 488.442C258.758 475.918 248.768 465.767 236.443 465.758C248.701 465.75 258.648 455.71 258.765 443.281L258.767 443.281C258.883 455.71 268.831 465.75 281.088 465.758C268.763 465.767 258.773 475.918 258.766 488.442Z" fill="#8FBC94"/>
<path d="M258.766 488.47C258.765 488.686 258.762 488.902 258.756 489.117L258.775 489.117C258.769 488.902 258.766 488.686 258.766 488.47Z" fill="#8FBC94"/>
<path d="M281.32 465.759L281.32 465.757C281.253 465.758 281.186 465.758 281.119 465.758C281.186 465.758 281.253 465.759 281.32 465.759Z" fill="#8FBC94"/>
<path fill-rule="evenodd" clip-rule="evenodd" d="M414.4 310.814H310.8V414.414H414.4V310.814ZM337.979 387.883H387.868V337.994H337.979V387.883Z" fill="#6DA34D"/>
<path fill-rule="evenodd" clip-rule="evenodd" d="M103.616 414.4H0V517.986H103.616V414.4ZM27.1834 491.458H77.0798V441.576H27.1834V491.458Z" fill="#9F7960"/>
<path fill-rule="evenodd" clip-rule="evenodd" d="M128.852 414.4L128.852 389.148L103.6 389.148L103.6 310.8L207.2 310.8L207.2 414.4L128.852 414.4ZM178.741 339.259L178.741 389.148L128.852 389.148L128.852 339.259L178.741 339.259Z" fill="#5A893E"/>
<rect x="310.8" y="103.6" width="103.6" height="103.6" fill="#473930"/>
<path fill-rule="evenodd" clip-rule="evenodd" d="M362.671 198.845C386.666 198.845 406.117 179.394 406.117 155.4C406.117 131.406 386.666 111.955 362.671 111.955C338.677 111.955 319.226 131.406 319.226 155.4C319.226 179.394 338.677 198.845 362.671 198.845ZM362.916 187.576C380.551 187.576 394.847 173.28 394.847 155.645C394.847 138.01 380.551 123.714 362.916 123.714C345.281 123.714 330.985 138.01 330.985 155.645C330.985 173.28 345.281 187.576 362.916 187.576Z" fill="#8FBC94"/>
<circle cx="363.089" cy="155.818" r="20.4694" fill="#8FBC94"/>
<rect x="518" y="414.4" width="103.6" height="103.6" transform="rotate(90 518 414.4)" fill="#473930"/>
<path fill-rule="evenodd" clip-rule="evenodd" d="M500.909 463.639L500.909 462.357L500.909 431.945C496.325 431.945 491.787 432.732 487.553 434.26C483.319 435.788 479.472 438.029 476.231 440.852C472.99 443.676 470.419 447.029 468.666 450.719C466.912 454.408 466.009 458.363 466.009 462.356L466.002 462.356C465.913 458.495 465.015 454.681 463.353 451.11C461.599 447.343 459.028 443.921 455.787 441.038C452.547 438.155 448.699 435.868 444.465 434.308C440.231 432.748 435.693 431.945 431.11 431.945L431.11 462.356L431.11 462.99H431.11L431.111 469.326C431.283 488.25 446.842 503.539 466.01 503.539C485.177 503.539 500.736 488.25 500.908 469.326C500.909 469.131 500.909 465.753 500.909 463.674L500.909 463.639Z" fill="#6DA34D"/>
<path fill-rule="evenodd" clip-rule="evenodd" d="M453.91 258.582C453.91 274.501 466.948 287.406 483.031 287.406C499.114 287.406 512.152 274.501 512.152 258.582C512.152 242.663 499.114 229.758 483.031 229.758C466.948 229.758 453.91 242.663 453.91 258.582ZM465.26 258.73C465.26 268.363 473.149 276.172 482.881 276.172C492.614 276.172 500.503 268.363 500.503 258.73C500.503 249.097 492.614 241.288 482.881 241.288C473.149 241.288 465.26 249.097 465.26 258.73Z" fill="#6DA34D"/>
<path fill-rule="evenodd" clip-rule="evenodd" d="M387.679 258.582C387.679 274.501 400.717 287.406 416.8 287.406C432.883 287.406 445.921 274.501 445.921 258.582C445.921 242.663 432.883 229.758 416.8 229.758C400.717 229.758 387.679 242.663 387.679 258.582ZM399.029 258.73C399.029 268.363 406.918 276.173 416.651 276.173C426.383 276.173 434.273 268.363 434.273 258.73C434.273 249.097 426.383 241.288 416.651 241.288C406.918 241.288 399.029 249.097 399.029 258.73Z" fill="#284642"/>
<path fill-rule="evenodd" clip-rule="evenodd" d="M321.661 258.582C321.661 274.501 334.699 287.406 350.782 287.406C366.865 287.406 379.903 274.501 379.903 258.582C379.903 242.663 366.865 229.758 350.782 229.758C334.699 229.758 321.661 242.663 321.661 258.582ZM333.011 258.73C333.011 268.363 340.9 276.173 350.633 276.173C360.365 276.173 368.255 268.363 368.255 258.73C368.255 249.097 360.365 241.288 350.633 241.288C340.9 241.288 333.011 249.097 333.011 258.73Z" fill="#6DA34D"/>
<rect x="207.2" y="207.2" width="103.6" height="103.6" fill="#473930"/>
<path d="M261.113 215.116C261.113 214.984 261.114 214.852 261.115 214.719H261.111C261.112 214.852 261.113 214.984 261.113 215.116Z" fill="#6DA34D"/>
<path d="M216.877 259.418C241.3 259.4 261.095 239.605 261.113 215.182C261.131 239.472 280.712 259.185 304.952 259.416V259.42C280.712 259.65 261.131 279.363 261.113 303.654C261.095 279.231 241.3 259.435 216.877 259.418Z" fill="#6DA34D"/>
<path d="M216.811 259.418C216.391 259.417 215.972 259.411 215.555 259.399V259.436C215.972 259.424 216.391 259.418 216.811 259.418Z" fill="#6DA34D"/>
<path d="M261.111 304.116H261.115C261.114 303.984 261.113 303.852 261.113 303.719C261.113 303.852 261.112 303.984 261.111 304.116Z" fill="#6DA34D"/>
<rect x="207.2" y="207.2" width="103.6" height="103.6" transform="rotate(-180 207.2 207.2)" fill="#8FBC94"/>
<ellipse cx="154.982" cy="155.4" rx="33.0016" ry="33.4194" transform="rotate(-180 154.982 155.4)" fill="#284642"/>
<path d="M310.8 103.6L310.8 1.81278e-05L207.2 9.05487e-06L310.8 103.6Z" fill="#6DA34D"/>
</svg>
