<svg width="34" height="34" viewBox="0 0 34 34" fill="none" xmlns="http://www.w3.org/2000/svg">
<path d="M17 27C15.6167 27 14.3167 26.7375 13.1 26.2125C11.8833 25.6875 10.825 24.975 9.925 24.075C9.025 23.175 8.3125 22.1167 7.7875 20.9C7.2625 19.6833 7 18.3833 7 17C7 15.6167 7.2625 14.3167 7.7875 13.1C8.3125 11.8833 9.025 10.825 9.925 9.925C10.825 9.025 11.8833 8.3125 13.1 7.7875C14.3167 7.2625 15.6167 7 17 7C18.3833 7 19.6833 7.2625 20.9 7.7875C22.1167 8.3125 23.175 9.025 24.075 9.925C24.975 10.825 25.6875 11.8833 26.2125 13.1C26.7375 14.3167 27 15.6167 27 17C27 18.3833 26.7375 19.6833 26.2125 20.9C25.6875 22.1167 24.975 23.175 24.075 24.075C23.175 24.975 22.1167 25.6875 20.9 26.2125C19.6833 26.7375 18.3833 27 17 27ZM14.1 24.45L15.3 21.7C14.6 21.45 13.9958 21.0625 13.4875 20.5375C12.9792 20.0125 12.5833 19.4 12.3 18.7L9.55 19.85C9.93333 20.9167 10.525 21.85 11.325 22.65C12.125 23.45 13.05 24.05 14.1 24.45ZM12.3 15.3C12.5833 14.6 12.9792 13.9875 13.4875 13.4625C13.9958 12.9375 14.6 12.55 15.3 12.3L14.15 9.55C13.0833 9.95 12.15 10.55 11.35 11.35C10.55 12.15 9.95 13.0833 9.55 14.15L12.3 15.3ZM17 20C17.8333 20 18.5417 19.7083 19.125 19.125C19.7083 18.5417 20 17.8333 20 17C20 16.1667 19.7083 15.4583 19.125 14.875C18.5417 14.2917 17.8333 14 17 14C16.1667 14 15.4583 14.2917 14.875 14.875C14.2917 15.4583 14 16.1667 14 17C14 17.8333 14.2917 18.5417 14.875 19.125C15.4583 19.7083 16.1667 20 17 20ZM19.9 24.45C20.95 24.05 21.8708 23.4542 22.6625 22.6625C23.4542 21.8708 24.05 20.95 24.45 19.9L21.7 18.7C21.45 19.4 21.0667 20.0042 20.55 20.5125C20.0333 21.0208 19.4333 21.4167 18.75 21.7L19.9 24.45ZM21.7 15.25L24.45 14.1C24.05 13.05 23.4542 12.1292 22.6625 11.3375C21.8708 10.5458 20.95 9.95 19.9 9.55L18.75 12.35C19.4333 12.6 20.025 12.9792 20.525 13.4875C21.025 13.9958 21.4167 14.5833 21.7 15.25Z" fill="#49454F"/>
</svg>
