<svg width="34" height="34" viewBox="0 0 34 34" fill="none" xmlns="http://www.w3.org/2000/svg">
<path fill-rule="evenodd" clip-rule="evenodd" d="M10 9C9.44772 9 9 9.44772 9 10V15.0784C9 15.6307 9.44772 16.0784 10 16.0784H15.0813C15.6336 16.0784 16.0813 15.6307 16.0813 15.0784V10C16.0813 9.44772 15.6336 9 15.0813 9H10ZM10 17.9216C9.44772 17.9216 9 18.3694 9 18.9216V24C9 24.5523 9.44772 25 10 25H15.0813C15.6336 25 16.0813 24.5523 16.0813 24V18.9216C16.0813 18.3694 15.6336 17.9216 15.0813 17.9216H10ZM17.9188 10C17.9188 9.44772 18.3665 9 18.9188 9H24.0001C24.5524 9 25.0001 9.44772 25.0001 10V15.0784C25.0001 15.6307 24.5524 16.0784 24.0001 16.0784H18.9188C18.3665 16.0784 17.9188 15.6307 17.9188 15.0784V10ZM18.9188 17.9216C18.3665 17.9216 17.9188 18.3693 17.9188 18.9216V24C17.9188 24.5523 18.3665 25 18.9188 25H24.0001C24.5524 25 25.0001 24.5523 25.0001 24V18.9216C25.0001 18.3693 24.5524 17.9216 24.0001 17.9216H18.9188Z" fill="#49454F"/>
</svg>
