<svg width="34" height="34" viewBox="0 0 34 34" fill="none" xmlns="http://www.w3.org/2000/svg">
<path d="M24.43 17.98C24.47 17.66 24.5 17.34 24.5 17C24.5 16.66 24.47 16.34 24.43 16.02L26.54 14.37C26.73 14.22 26.78 13.95 26.66 13.73L24.66 10.27C24.54 10.05 24.27 9.97 24.05 10.05L21.56 11.05C21.04 10.65 20.48 10.32 19.87 10.07L19.49 7.42C19.46 7.18 19.25 7 19 7H15C14.75 7 14.54 7.18 14.51 7.42L14.13 10.07C13.52 10.32 12.96 10.66 12.44 11.05L9.94996 10.05C9.71996 9.96 9.45996 10.05 9.33996 10.27L7.33996 13.73C7.20996 13.95 7.26996 14.22 7.45996 14.37L9.56996 16.02C9.52996 16.34 9.49996 16.67 9.49996 17C9.49996 17.33 9.52996 17.66 9.56996 17.98L7.45996 19.63C7.26996 19.78 7.21996 20.05 7.33996 20.27L9.33996 23.73C9.45996 23.95 9.72996 24.03 9.94996 23.95L12.44 22.95C12.96 23.35 13.52 23.68 14.13 23.93L14.51 26.58C14.54 26.82 14.75 27 15 27H19C19.25 27 19.46 26.82 19.49 26.58L19.87 23.93C20.48 23.68 21.04 23.34 21.56 22.95L24.05 23.95C24.28 24.04 24.54 23.95 24.66 23.73L26.66 20.27C26.78 20.05 26.73 19.78 26.54 19.63L24.43 17.98ZM17 20.5C15.07 20.5 13.5 18.93 13.5 17C13.5 15.07 15.07 13.5 17 13.5C18.93 13.5 20.5 15.07 20.5 17C20.5 18.93 18.93 20.5 17 20.5Z" fill="#49454F"/>
</svg>
