<svg width="32" height="32" viewBox="0 0 32 32" fill="none" xmlns="http://www.w3.org/2000/svg">
<rect width="32" height="32" rx="5" fill="#383832"/>
<path fill-rule="evenodd" clip-rule="evenodd" d="M9.0575 9.0575C5.22326 12.8917 5.22326 19.1083 9.0575 22.9425C12.8917 26.7767 19.1083 26.7767 22.9425 22.9425C26.7767 19.1083 26.7767 12.8917 22.9425 9.0575C19.1083 5.22326 12.8917 5.22326 9.0575 9.0575ZM7.51472 24.4853C2.82843 19.799 2.82843 12.201 7.51472 7.51472C12.201 2.82843 19.799 2.82843 24.4853 7.51472C29.1716 12.201 29.1716 19.799 24.4853 24.4853C19.799 29.1716 12.201 29.1716 7.51472 24.4853Z" fill="#E8E3DF"/>
<path fill-rule="evenodd" clip-rule="evenodd" d="M13.9531 13.9531C12.8226 15.0836 12.8226 16.9164 13.9531 18.0469C15.0836 19.1773 16.9164 19.1773 18.0469 18.0469C19.1774 16.9164 19.1774 15.0836 18.0469 13.9531C16.9164 12.8226 15.0836 12.8226 13.9531 13.9531ZM12.4645 19.5355C10.5118 17.5829 10.5118 14.4171 12.4645 12.4645C14.4171 10.5118 17.5829 10.5118 19.5355 12.4645C21.4882 14.4171 21.4882 17.5829 19.5355 19.5355C17.5829 21.4881 14.4171 21.4881 12.4645 19.5355Z" fill="#E8E3DF"/>
<path fill-rule="evenodd" clip-rule="evenodd" d="M24.4853 24.4853C24.0948 24.8758 23.4328 24.847 23.0068 24.421L7.579 8.99321C7.15297 8.56718 7.12419 7.90524 7.51472 7.51472C7.90524 7.12419 8.56718 7.15297 8.99321 7.57899L24.421 23.0068C24.847 23.4328 24.8758 24.0948 24.4853 24.4853Z" fill="#E8E3DF"/>
</svg>
