<svg width="32" height="32" viewBox="0 0 32 32" fill="none" xmlns="http://www.w3.org/2000/svg">
<rect width="32" height="32" rx="5" fill="#FAF8F6"/>
<path d="M20.6124 8.69912C20.6124 6.94691 18.4944 5.45428 17.9101 5.45428C17.1067 5.45428 15.573 5.84366 13.9663 6.68732C13.9663 6.55752 13.382 5.0649 12.1404 5C12.0674 5 10.1685 6.23304 9.73034 6.55752V7.0118C10.4607 7.0118 10.6068 7.53097 10.6068 8.11504V24.2094C10.6068 25.118 10.1685 26.0266 9 26.1563L9.51124 27C10.8989 26.4808 13.6742 25.5074 15.0618 24.9882V24.0147C14.4775 24.0147 13.9663 23.8201 13.9663 22.9115V8.43953C14.0393 8.37463 14.7697 7.92036 15.6461 7.92036C16.2303 7.92036 16.8876 8.50443 16.8876 9.34809V24.2094C16.8876 25.6372 18.5674 26.1563 18.8595 26.1563C19.0786 26.0266 22 24.469 22 24.469L22 23.885C21.4888 23.885 20.6124 23.4047 20.6124 22.7817V8.69912Z" fill="#383832"/>
</svg>
