<svg width="30" height="30" viewBox="0 0 30 30" fill="none" xmlns="http://www.w3.org/2000/svg">
<rect width="30" height="30" rx="5" fill="#383832"/>
<path d="M19.6124 7.69912C19.6124 5.94691 17.4944 4.45428 16.9101 4.45428C16.1067 4.45428 14.573 4.84366 12.9663 5.68732C12.9663 5.55752 12.382 4.0649 11.1404 4C11.0674 4 9.16854 5.23304 8.73034 5.55752V6.0118C9.46067 6.0118 9.60675 6.53097 9.60675 7.11504V23.2094C9.60675 24.118 9.16854 25.0265 8 25.1563L8.51124 26C9.89887 25.4808 12.6742 24.5074 14.0618 23.9882V23.0147C13.4775 23.0147 12.9663 22.8201 12.9663 21.9115V7.43953C13.0393 7.37463 13.7697 6.92036 14.6461 6.92036C15.2303 6.92036 15.8876 7.50443 15.8876 8.34809V23.2094C15.8876 24.6372 17.5674 25.1563 17.8595 25.1563C18.0786 25.0265 21 23.469 21 23.469L21 22.885C20.4888 22.885 19.6124 22.4047 19.6124 21.7817V7.69912Z" fill="#E8E3DF"/>
</svg>
