<svg width="210" height="210" viewBox="0 0 210 210" fill="none" xmlns="http://www.w3.org/2000/svg">
<path d="M102.489 160.716C115.227 162.16 128.492 158.095 138.263 148.522C148.035 138.95 152.184 125.955 150.71 113.477C137.973 112.033 124.708 116.098 114.936 125.67C105.165 135.243 101.016 148.238 102.489 160.716Z" fill="#6DA34D"/>
<path d="M107.51 160.716C108.984 148.238 104.835 135.243 95.0633 125.67C85.292 116.098 72.0274 112.033 59.2896 113.476C57.8162 125.955 61.9653 138.95 71.7366 148.522C81.5079 158.095 94.7725 162.16 107.51 160.716Z" fill="#6DA34D"/>
<path d="M105.657 123.584C105.657 123.696 105.656 123.807 105.655 123.919L105.658 123.919C105.657 123.807 105.657 123.696 105.657 123.584Z" fill="#6DA34D"/>
<path d="M143.504 86.4594C122.608 86.4714 105.671 103.063 105.657 123.533C105.643 103.176 88.8915 86.6543 68.1547 86.4611L68.1547 86.4577C88.8917 86.2644 105.643 69.7429 105.657 49.3854C105.671 69.8557 122.608 86.4473 143.504 86.4594Z" fill="#6DA34D"/>
<path d="M143.55 86.4594C143.911 86.4596 144.271 86.4647 144.629 86.4748L144.629 86.4439C144.271 86.454 143.911 86.4591 143.55 86.4594Z" fill="#6DA34D"/>
<path d="M105.658 49L105.655 49C105.656 49.1116 105.657 49.2232 105.657 49.335C105.657 49.2232 105.657 49.1116 105.658 49Z" fill="#6DA34D"/>
<path fill-rule="evenodd" clip-rule="evenodd" d="M105.445 210C163.189 210 210 163.189 210 105.445C210 47.7012 163.189 0.890381 105.445 0.890381C47.7011 0.890381 0.89032 47.7012 0.89032 105.445C0.89032 163.189 47.7011 210 105.445 210ZM106.034 182.878C148.474 182.878 182.878 148.474 182.878 106.034C182.878 63.5936 148.474 29.1891 106.034 29.1891C63.5936 29.1891 29.1891 63.5936 29.1891 106.034C29.1891 148.474 63.5936 182.878 106.034 182.878Z" fill="#6DA34D"/>
</svg>
